REM DIRINDEX 1\2\6,1\2\7,1\2\8,1\3\9,1\3\10,1\3\11,1\4\12,1\4\13,1\4\14,1\5\15,1\5\16,1\5\17,1\5\18
REM DIRNAME folder01,folder02,folder03,folder04,folder05,folder06,folder07,folder08,folder09,folder10,folder11,folder12,folder13,folder14,folder15,folder16,folder17,folder18
TITLE ""
FILE "" MP3
  TRACK 01 AUDIO
    TITLE "16:cjc019_4853"
    INDEX 01 00:00:00
  TRACK 02 AUDIO
    TITLE "0:"
    INDEX 01 00:01:17
  TRACK 03 AUDIO
    TITLE "18:cjc019_4854"
    INDEX 01 00:02:00
  TRACK 04 AUDIO
    TITLE "0:"
    INDEX 01 00:05:20
  TRACK 05 AUDIO
    TITLE "17:cjc019_4855"
    INDEX 01 00:05:69
  TRACK 06 AUDIO
    TITLE "0:"
    INDEX 01 00:07:17
  TRACK 07 AUDIO
    TITLE "16:cjc019_4856"
    INDEX 01 00:08:72
  TRACK 08 AUDIO
    TITLE "0:"
    INDEX 01 00:10:10
  TRACK 09 AUDIO
    TITLE "18:cjc019_4857"
    INDEX 01 00:10:66
  TRACK 10 AUDIO
    TITLE "0:"
    INDEX 01 00:14:02
  TRACK 11 AUDIO
    TITLE "17:cjc019_4858"
    INDEX 01 00:14:54
  TRACK 12 AUDIO
    TITLE "0:"
    INDEX 01 00:15:70
  TRACK 13 AUDIO
    TITLE "16:cjc019_4859"
    INDEX 01 00:17:57
  TRACK 14 AUDIO
    TITLE "0:"
    INDEX 01 00:19:20
  TRACK 15 AUDIO
    TITLE "18:cjc019_4860"
    INDEX 01 00:20:00
  TRACK 16 AUDIO
    TITLE "0:"
    INDEX 01 00:21:62
  TRACK 17 AUDIO
    TITLE "17:cjc019_4861"
    INDEX 01 00:22:40
  TRACK 18 AUDIO
    TITLE "0:"
    INDEX 01 00:23:73
  TRACK 19 AUDIO
    TITLE "16:cjc019_4862"
    INDEX 01 00:25:54
  TRACK 20 AUDIO
    TITLE "0:"
    INDEX 01 00:26:69
  TRACK 21 AUDIO
    TITLE "18:cjc019_4863"
    INDEX 01 00:27:47
  TRACK 22 AUDIO
    TITLE "0:"
    INDEX 01 00:29:23
  TRACK 23 AUDIO
    TITLE "17:cjc019_4864"
    INDEX 01 00:29:70
  TRACK 24 AUDIO
    TITLE "0:"
    INDEX 01 00:31:14
  TRACK 25 AUDIO
    TITLE "16:cjc019_4865"
    INDEX 01 00:32:64
  TRACK 26 AUDIO
    TITLE "0:"
    INDEX 01 00:33:68
  TRACK 27 AUDIO
    TITLE "18:cjc019_4866"
    INDEX 01 00:34:43
  TRACK 28 AUDIO
    TITLE "0:"
    INDEX 01 00:38:20
  TRACK 29 AUDIO
    TITLE "17:cjc019_4867"
    INDEX 01 00:38:73
  TRACK 30 AUDIO
    TITLE "0:"
    INDEX 01 00:39:74
  TRACK 31 AUDIO
    TITLE "16:cjc019_4868"
    INDEX 01 00:41:59
  TRACK 32 AUDIO
    TITLE "0:"
    INDEX 01 00:43:05
  TRACK 33 AUDIO
    TITLE "18:cjc019_4869"
    INDEX 01 00:43:50
  TRACK 34 AUDIO
    TITLE "0:"
    INDEX 01 00:46:62
  TRACK 35 AUDIO
    TITLE "17:cjc019_4870"
    INDEX 01 00:47:36
  TRACK 36 AUDIO
    TITLE "0:"
    INDEX 01 00:48:61
  TRACK 37 AUDIO
    TITLE "16:cjc019_4871"
    INDEX 01 00:50:41
  TRACK 38 AUDIO
    TITLE "0:"
    INDEX 01 00:51:67
  TRACK 39 AUDIO
    TITLE "18:cjc019_4872"
    INDEX 01 00:52:47
  TRACK 40 AUDIO
    TITLE "0:"
    INDEX 01 00:58:11
  TRACK 41 AUDIO
    TITLE "17:cjc019_4873"
    INDEX 01 00:58:62
  TRACK 42 AUDIO
    TITLE "0:"
    INDEX 01 01:00:08
  TRACK 43 AUDIO
    TITLE "16:cjc019_4874"
    INDEX 01 01:01:66
  TRACK 44 AUDIO
    TITLE "0:"
    INDEX 01 01:03:20
  TRACK 45 AUDIO
    TITLE "18:cjc019_4875"
    INDEX 01 01:04:00
  TRACK 46 AUDIO
    TITLE "0:"
    INDEX 01 01:07:17
  TRACK 47 AUDIO
    TITLE "17:cjc019_4876"
    INDEX 01 01:07:70
  TRACK 48 AUDIO
    TITLE "0:"
    INDEX 01 01:09:26
  TRACK 49 AUDIO
    TITLE "16:cjc019_4877"
    INDEX 01 01:11:07
  TRACK 50 AUDIO
    TITLE "0:"
    INDEX 01 01:12:17
  TRACK 51 AUDIO
    TITLE "18:cjc019_4878"
    INDEX 01 01:13:00
  TRACK 52 AUDIO
    TITLE "0:"
    INDEX 01 01:17:04
  TRACK 53 AUDIO
    TITLE "17:cjc019_4879"
    INDEX 01 01:17:59
  TRACK 54 AUDIO
    TITLE "0:"
    INDEX 01 01:18:68
  TRACK 55 AUDIO
    TITLE "16:cjc019_4880"
    INDEX 01 01:20:53
  TRACK 56 AUDIO
    TITLE "0:"
    INDEX 01 01:21:65
  TRACK 57 AUDIO
    TITLE "18:cjc019_4881"
    INDEX 01 01:22:46
  TRACK 58 AUDIO
    TITLE "0:"
    INDEX 01 01:26:07
  TRACK 59 AUDIO
    TITLE "17:cjc019_4882"
    INDEX 01 01:26:58
  TRACK 60 AUDIO
    TITLE "0:"
    INDEX 01 01:27:73
  TRACK 61 AUDIO
    TITLE "16:cjc019_4883"
    INDEX 01 01:29:52
  TRACK 62 AUDIO
    TITLE "0:"
    INDEX 01 01:31:10
  TRACK 63 AUDIO
    TITLE "18:cjc019_4884"
    INDEX 01 01:31:63
  TRACK 64 AUDIO
    TITLE "0:"
    INDEX 01 01:33:44
  TRACK 65 AUDIO
    TITLE "17:cjc019_4885"
    INDEX 01 01:34:20
  TRACK 66 AUDIO
    TITLE "0:"
    INDEX 01 01:35:55
  TRACK 67 AUDIO
    TITLE "16:cjc019_4886"
    INDEX 01 01:37:38
  TRACK 68 AUDIO
    TITLE "0:"
    INDEX 01 01:38:61
  TRACK 69 AUDIO
    TITLE "18:cjc019_4887"
    INDEX 01 01:39:41
  TRACK 70 AUDIO
    TITLE "0:"
    INDEX 01 01:46:02
  TRACK 71 AUDIO
    TITLE "17:cjc019_4888"
    INDEX 01 01:46:55
  TRACK 72 AUDIO
    TITLE "0:"
    INDEX 01 01:47:74
  TRACK 73 AUDIO
    TITLE "16:cjc019_4889"
    INDEX 01 01:49:51
  TRACK 74 AUDIO
    TITLE "0:"
    INDEX 01 01:50:64
  TRACK 75 AUDIO
    TITLE "18:cjc019_4890"
    INDEX 01 01:51:42
  TRACK 76 AUDIO
    TITLE "0:"
    INDEX 01 01:53:04
  TRACK 77 AUDIO
    TITLE "17:cjc019_4891"
    INDEX 01 01:53:61
  TRACK 78 AUDIO
    TITLE "0:"
    INDEX 01 01:54:74
  TRACK 79 AUDIO
    TITLE "16:cjc019_4892"
    INDEX 01 01:56:57
  TRACK 80 AUDIO
    TITLE "0:"
    INDEX 01 01:57:66
  TRACK 81 AUDIO
    TITLE "18:cjc019_4893"
    INDEX 01 01:58:42
  TRACK 82 AUDIO
    TITLE "0:"
    INDEX 01 02:00:10
  TRACK 83 AUDIO
    TITLE "17:cjc019_4894"
    INDEX 01 02:00:59
  TRACK 84 AUDIO
    TITLE "0:"
    INDEX 01 02:01:70
  TRACK 85 AUDIO
    TITLE "16:cjc019_4895"
    INDEX 01 02:03:49
  TRACK 86 AUDIO
    TITLE "0:"
    INDEX 01 02:04:64
  TRACK 87 AUDIO
    TITLE "18:cjc019_4896"
    INDEX 01 02:05:42
  TRACK 88 AUDIO
    TITLE "0:"
    INDEX 01 02:09:30
  TRACK 89 AUDIO
    TITLE "17:cjc019_4897"
    INDEX 01 02:10:08
  TRACK 90 AUDIO
    TITLE "0:"
    INDEX 01 02:11:21
